<?xml version="1.0" encoding="UTF-8"?>
<svg xmlns="http://www.w3.org/2000/svg" viewBox="0 0 494.55 417.66">
  <defs>
    <style>
      .cls-1, .cls-2 {
        fill: #f2d59f;
      }

      .cls-2 {
        stroke: #7ccbe3;
      }

      .cls-2, .cls-3 {
        stroke-miterlimit: 10;
      }

      .cls-4 {
        fill: #193540;
      }

      .cls-5 {
        fill: #8ecac1;
      }

      .cls-6 {
        fill: #e6b263;
      }

      .cls-7 {
        fill: #ff7124;
      }

      .cls-3 {
        fill: #dd5d05;
        fill-rule: evenodd;
        stroke: #193540;
        stroke-width: 12px;
      }
    </style>
  </defs>
  <g id="Livello_1" data-name="Livello 1">
    <path class="cls-3" d="m6,183.73c0,101.86,83.67,200.18,189.44,222.6,144.77,30.69,286.26-74.9,292.58-218.36l.53-12.01c.05-1.14-.86-2.09-2-2.09h-82.13c-1.03,0-1.89.78-1.99,1.8l-1.01,10.2c-18.3,184.9-291.67,185.45-308.61.63l-.99-10.82c-.09-1.03-.96-1.82-1.99-1.82H8c-1.1,0-2,.9-2,2v7.86"/>
  </g>
  <g id="Livello_3" data-name="Livello 3">
    <g id="_15._Rocket" data-name="15. Rocket">
      <g>
        <g>
          <path class="cls-7" d="m399.72,11.69c5.99,24.77,4.42,50.96-4.62,74.92h0S324.66,12.72,324.66,12.72h0c24.37-7.89,50.6-8.2,75.06-1.03Z"/>
          <path class="cls-2" d="m195.37,131.25l58.27-64.61h0s22.54-25,22.54-25c14.27-13.61,30.89-23.24,48.47-28.93h0s70.43,73.9,70.43,73.9h0c-6.53,17.29-16.94,33.43-31.22,47.03l-26.05,21.32-67.34,55.1-18.77-19.7-18.78-19.7-18.78-19.7-18.78-19.7Zm134.16-6.24c13.44-12.81,13.95-34.09,1.14-47.52-12.81-13.44-34.09-13.95-47.52-1.14-13.44,12.81-13.95,34.09-1.14,47.52,12.81,13.44,34.09,13.95,47.52,1.14Z"/>
          <path class="cls-1" d="m337.83,154.95c.42,29.69-11.06,59.47-34.25,81.57-7.12,6.78-14.9,12.43-23.14,16.95l-9.95-43.42,67.34-55.1Z"/>
          <path class="cls-5" d="m330.68,77.48c12.81,13.44,12.3,34.72-1.14,47.52-13.44,12.81-34.72,12.3-47.52-1.14-12.81-13.44-12.3-34.72,1.14-47.52,13.44-12.81,34.72-12.3,47.52,1.14Z"/>
          <path class="cls-6" d="m270.49,210.05l-26.21,8.95c-7.21,2.46-15.18.51-20.43-5.01l-4.35-4.56,32.22-19.07,18.77,19.7Z"/>
          <polygon class="cls-6" points="251.71 190.36 219.49 209.43 219.49 209.43 206.52 195.82 232.93 170.65 251.71 190.36"/>
          <path class="cls-1" d="m253.64,66.63l-58.27,64.61-42.88-12.02c4.9-8.01,10.92-15.51,18.04-22.3,23.19-22.1,53.47-32.14,83.11-30.29Z"/>
          <polygon class="cls-6" points="232.93 170.65 206.52 195.82 193.56 182.22 214.15 150.95 232.93 170.65"/>
          <path class="cls-6" d="m214.15,150.95l-20.6,31.27-4.36-4.56c-5.25-5.52-6.82-13.57-4.02-20.65l10.19-25.76,18.78,19.7Z"/>
        </g>
        <g>
          <path class="cls-4" d="m153.43,215.85c-1.66-.04-3.31-.72-4.55-2.02-2.48-2.6-2.38-6.72.22-9.2l13.68-13.04c2.6-2.48,6.72-2.38,9.2.22,2.48,2.6,2.38,6.72-.22,9.2l-13.68,13.04c-1.3,1.24-2.98,1.83-4.65,1.79Z"/>
          <path class="cls-4" d="m139.94,265.63c-1.67-.04-3.31-.72-4.55-2.02-2.48-2.6-2.38-6.72.22-9.2l45.61-43.46c2.6-2.48,6.72-2.38,9.2.22,2.48,2.6,2.38,6.72-.22,9.2l-45.61,43.46c-1.3,1.24-2.98,1.83-4.64,1.79Z"/>
          <path class="cls-4" d="m181.19,263.24c-1.67-.04-3.31-.72-4.55-2.02-2.48-2.6-2.38-6.72.22-9.2l22.8-21.73c2.6-2.48,6.72-2.38,9.2.22,2.48,2.6,2.38,6.72-.22,9.2l-22.8,21.73c-1.3,1.24-2.98,1.83-4.65,1.79Z"/>
          <path class="cls-4" d="m270.33,216.56c-1.67-.04-3.31-.72-4.55-2.02l-75.11-78.81c-2.48-2.6-2.38-6.72.22-9.2,2.6-2.48,6.72-2.38,9.2.22l75.11,78.81c2.48,2.6,2.38,6.72-.22,9.2-1.3,1.24-2.98,1.83-4.65,1.79Z"/>
          <path class="cls-4" d="m305.38,140.79c-10.72-.26-20.69-4.67-28.08-12.43-7.39-7.75-11.33-17.93-11.07-28.64.26-10.72,4.67-20.69,12.43-28.08,7.75-7.39,17.93-11.33,28.64-11.07s20.69,4.67,28.08,12.43c7.39,7.75,11.32,17.93,11.07,28.64-.26,10.71-4.67,20.69-12.43,28.08h0s0,0,0,0c-7.76,7.4-17.93,11.33-28.64,11.07Zm1.61-67.21c-7.24-.17-14.11,2.48-19.35,7.48-5.24,5-8.23,11.73-8.4,18.97-.17,7.24,2.48,14.11,7.48,19.35,5,5.24,11.73,8.23,18.97,8.4s14.11-2.48,19.35-7.48c0,0,0,0,0,0,5.24-4.99,8.22-11.73,8.4-18.97.17-7.24-2.48-14.11-7.48-19.35-5-5.24-11.73-8.23-18.97-8.4Z"/>
          <path class="cls-4" d="m193.4,188.72c-1.18-.03-2.36-.38-3.42-1.07-3-1.98-3.83-6.01-1.85-9.01l20.6-31.27c1.98-3,6.01-3.83,9.01-1.85,3,1.98,3.83,6.01,1.85,9.01l-20.6,31.27c-1.28,1.95-3.43,2.98-5.6,2.93Z"/>
          <path class="cls-4" d="m206.37,202.33c-1.66-.04-3.31-.72-4.55-2.02-2.48-2.6-2.38-6.72.22-9.2l26.41-25.17c2.6-2.48,6.72-2.38,9.2.22,2.48,2.6,2.38,6.72-.22,9.2l-26.41,25.17c-1.3,1.24-2.98,1.84-4.65,1.8Z"/>
          <path class="cls-4" d="m219.34,215.93c-2.17-.05-4.26-1.19-5.45-3.19-1.83-3.09-.81-7.08,2.28-8.91l32.22-19.07c3.09-1.83,7.08-.81,8.91,2.28,1.83,3.09.81,7.08-2.28,8.91l-32.22,19.07c-1.09.64-2.29.93-3.46.91Z"/>
          <path class="cls-4" d="m253.49,73.14c-1.5-.04-3-.59-4.2-1.67-2.67-2.41-2.88-6.52-.48-9.19l22.54-25c2.41-2.67,6.52-2.88,9.19-.47,2.67,2.41,2.88,6.52.47,9.19l-22.54,25c-1.32,1.47-3.16,2.19-4.99,2.15Z"/>
          <path class="cls-4" d="m237.38,226.54c-6.8-.16-13.42-2.98-18.25-8.06l-4.18-4.38c-.06-.06-.12-.12-.17-.18l-30.28-31.77c-6.98-7.33-9.08-18.14-5.37-27.54l10.19-25.76c.29-.72.7-1.39,1.22-1.96l58.27-64.61c2.41-2.67,6.52-2.88,9.19-.47,2.67,2.41,2.88,6.52.47,9.19l-57.48,63.74-9.76,24.67c-1.86,4.7-.8,10.11,2.68,13.77l30.11,31.6c.06.06.12.12.17.18l4.35,4.56c3.49,3.67,8.83,4.98,13.62,3.34l25.1-8.57,92.48-75.67c2.78-2.28,6.88-1.86,9.16.91,2.28,2.78,1.87,6.88-.91,9.16l-93.39,76.41c-.6.49-1.28.87-2.02,1.12l-26.21,8.95c-2.94,1-5.99,1.45-9,1.38Z"/>
          <path class="cls-4" d="m363.72,140.14c-1.66-.04-3.31-.72-4.55-2.02-2.48-2.6-2.38-6.72.22-9.2,13.25-12.62,23.21-27.64,29.62-44.62,8.16-21.62,9.94-44.83,5.22-67.39-22.3-5.8-45.58-5.13-67.56,1.98-17.27,5.59-32.74,14.82-45.99,27.45-2.6,2.48-6.72,2.38-9.2-.22-2.48-2.6-2.38-6.72.22-9.2,14.67-13.98,31.82-24.21,50.96-30.41,25.69-8.31,52.97-8.68,78.89-1.08,2.23.65,3.95,2.45,4.49,4.71,6.35,26.26,4.67,53.49-4.86,78.75-7.1,18.82-18.15,35.46-32.82,49.44-1.3,1.24-2.98,1.83-4.65,1.79Z"/>
          <path class="cls-4" d="m394.93,93.11c-1.67-.04-3.31-.72-4.55-2.02l-70.43-73.89c-2.48-2.6-2.38-6.72.22-9.2,2.6-2.48,6.72-2.38,9.2.22l70.43,73.89c2.48,2.6,2.38,6.72-.22,9.2-1.3,1.24-2.98,1.83-4.65,1.79Z"/>
          <path class="cls-4" d="m195.23,137.75c-.54-.01-1.08-.09-1.61-.24l-42.88-12.02c-1.96-.55-3.56-1.99-4.3-3.89-.75-1.9-.56-4.04.51-5.78,5.27-8.61,11.69-16.55,19.09-23.61,23.5-22.4,55.57-34.1,87.98-32.08,3.49.2,6.22,3.13,6.13,6.65s-3.07,6.44-6.66,6.35h0c-.08,0-.17,0-.25-.01-28.81-1.8-57.33,8.6-78.22,28.51-4.45,4.25-8.51,8.85-12.11,13.75l34.09,9.55c2.87.74,4.96,3.37,4.89,6.46-.09,3.59-3.07,6.44-6.66,6.35Z"/>
          <path class="cls-4" d="m280.28,259.97c-.86-.02-1.71-.21-2.51-.57-1.86-.84-3.22-2.49-3.68-4.48l-9.95-43.42c-.8-3.5,1.39-6.99,4.89-7.8,3.5-.81,6.99,1.39,7.8,4.89l7.94,34.65c5.07-3.37,9.86-7.2,14.32-11.44,20.89-19.91,32.64-47.89,32.23-76.77-.05-3.59,2.82-6.55,6.41-6.6,3.59-.07,6.55,2.82,6.6,6.41.46,32.49-12.76,63.97-36.26,86.37-7.41,7.06-15.65,13.09-24.5,17.94-1.02.56-2.15.83-3.28.8Z"/>
        </g>
      </g>
    </g>
  </g>
</svg>